<svg id="Layer_1" data-name="Layer 1" xmlns="http://www.w3.org/2000/svg" viewBox="0 0 92.07 107.64"><title>accounticon</title><path d="M.14,107.64C.14,97.87-.24,88.4.25,79,.72,70,5.45,63.62,14.19,60.87c3.94-1.24,8.09-2.5,12.14-2.51,15-.06,30-.36,44.82.88C85.61,60.45,92,68.8,92.06,83.41c0,8,0,15.93,0,24.23ZM81.91,97.57c0-4.93,0-9.39,0-13.85-.06-9-3.52-14-12.33-14.41-15.74-.68-31.55-.56-47.31,0-7.14.26-11.09,4.22-11.66,10.23s-.12,11.84-.12,18Z"/><path d="M46.22,0a25.73,25.73,0,1,1-25.7,25.66A25.66,25.66,0,0,1,46.22,0ZM31,25.5C30.9,34.15,37.29,40.86,45.73,41A15,15,0,0,0,61.18,25.68a15.48,15.48,0,0,0-15-15.47A15.4,15.4,0,0,0,31,25.5Z"/></svg>