<svg id="Layer_1" data-name="Layer 1" xmlns="http://www.w3.org/2000/svg" viewBox="0 0 99.58 108.14"><title>carticon</title><path d="M27.82,22.2c0-3.29-.06-6.09,0-8.89C28,5.87,33.21.4,40.66.14,46.48-.07,52.31,0,58.13.11,66.3.27,71.74,5.8,72,14c.07,2.64,0,5.28,0,8.23,2.84.15,5.29.19,7.72.42,7.37.69,12.14,4.83,13,12.11,2.43,19.63,4.73,39.28,6.78,59,.82,7.84-5.38,14.2-13.9,14.26q-35.94.27-71.9,0C4.79,107.89-.86,101.34.11,92.46,2.22,73,4.6,53.49,7,34c.76-6.1,5.46-10.44,11.64-11.18C21.44,22.52,24.26,22.44,27.82,22.2Zm-.51,10.06c-2.14,0-4.34-.56-6,.15S17.24,35,17,36.55C14.5,55.35,12.33,74.2,10.08,93c-.4,3.32,1.12,5.12,4.47,5.12q35.25,0,70.5,0c3.37,0,4.7-1.69,4.3-5.13-2.21-18.84-4.22-37.71-6.64-56.53-.2-1.58-2.67-3.34-4.47-4.1s-3.84-.14-5.71-.14C71,36.48,74.09,43.06,67,43.18c-7.5.12-3.94-6.93-5.46-10.54H38.18c-.85,4.47,1,10.77-5.75,10.61S28.59,36.78,27.31,32.26ZM38.25,22.14H61.57C62.9,10,62.84,10,51.36,10h-3C37,10,37,10,38.25,22.14Z"/></svg>