<svg id="Layer_1" data-name="Layer 1" xmlns="http://www.w3.org/2000/svg" viewBox="0 0 125.95 89.73"><defs><style>.cls-1{fill:#fff;}</style></defs><title>pattalogo-footer</title><path class="cls-1" d="M21.43,45.07s-6.4,22.14-8,30a64.47,64.47,0,0,0-.94,10,4,4,0,0,0,3.28,4.61,4.1,4.1,0,0,0,.86,0s4.93-.13,5.07-4.66c0,0,.53-6.54,2.13-15.34L30.28,46a2.81,2.81,0,0,1,2-1.6s24.8-6.1,26.4-22.9c0,0,1.6-21.07-26.27-21.47,0,0-22.93,1.33-32,13.34a2.59,2.59,0,0,0,0,2.53s.67.8,2.4.27A48.31,48.31,0,0,1,31.75,8.27S49.83,9.64,50.1,21.47c0,0,.8,8.53-17.34,13.47l3.52-13.07s.4-3.47-2.27-3.47c0,0-3.86-.26-6.13,6L24.63,34.94a1.94,1.94,0,0,1-2.4.93,13.94,13.94,0,0,1-4.53-1.73s-4.27-1.74-6.14,1.6C11.56,35.74,7.16,43.21,21.43,45.07Z" transform="translate(-0.08 0)"/><path class="cls-1" d="M45,65.74s-4,5.6-9.87,5.2c0,0-10.66-2.13-2-16.53,0,0,8.67-12.54,20.41-13.6,0,0,4.93.26,2.8,4.93,0,0-3.6,8-4.54,12.67,0,0-.8,2.66,1.6,2.53,0,0,2,.4,3.87-5.73L63.57,36l-4,.57s-3.2.8-3.5-2.4c0,0-.4-3.1,4-3.7l5.3-.9,3-8.7a5.17,5.17,0,0,1,4.7-3.3s5-.2,3.8,4.9l-1.4,4.8,6.2-.7,2.8-7.6a5.88,5.88,0,0,1,5.7-4.3s4.5.4,3.6,4.8l-1.2,5L117,21.17s8.5-1.8,9,3.2c0,0,.1,2.9-6.8,4.1l-27.95,4.4a3.07,3.07,0,0,0-2.3,1.9c-.7,1.7-4.2,10.8-4.3,15.7,0,0-.1,3.3,1.4,3.3,0,0,1.1.2,1.5-2.6a24.27,24.27,0,0,1,18.21-18.3,4.55,4.55,0,0,1,4,1.7s.3,1.3,1.1.4a5.51,5.51,0,0,1,5-1.7s4.6,1.4,2.6,5.8l-4.1,9.3s-2.2,6.1,1.6,3.7a7.53,7.53,0,0,1,3.9-1.6s4.1.2,4.2,3.8c0,0,.3,7-9.3,7.6,0,0-7.3.4-8.3-4.5,0,0-.5-.5-.9,0,0,0-6.2,8.51-13.61,4.4l-1.3-1s-.5-.7-1,.2a7.07,7.07,0,0,1-5.8,3.3s-4,.91-6.2-4c0,0-.5-.6-.8.1,0,0-3.7,6-8.7,6.4,0,0-3.5,1.2-6.8-3.59,0,0-.5-.51-.7,0,0,0-3.6,5.6-8.8,5.6C51.92,68.78,47.28,69.91,45,65.74Zm57.5-17.47s4.5-6.4,2.4-7.7c0,0-1.7-1-6.11,5.4,0,0-4.1,6-1.9,7.5C96.92,53.47,99,54.87,102.53,48.27Zm-32.91-1.4c-2.3,9.4.7,9.3.7,9.3,2.5.4,4.5-7.2,4.5-7.2l4.46-14.9-6.1.9ZM44,57.27s4.4-5.7,2.4-6.9c0,0-2.4-.4-5.3,4.3,0,0-3.3,4.6-1.8,6.6C39.28,61.27,40.92,62.47,44,57.27Z" transform="translate(-0.08 0)"/><path class="cls-1" d="M122,33.86a2.33,2.33,0,1,1-3.24-3.36,2.28,2.28,0,0,1,1.61-.63,2.34,2.34,0,0,1,2.32,2.36,2.29,2.29,0,0,1-.69,1.64Zm-3-3a1.9,1.9,0,0,0-.56,1.35,1.86,1.86,0,0,0,.57,1.37,1.9,1.9,0,0,0,2.69,0l0,0a1.86,1.86,0,0,0,.56-1.37,1.95,1.95,0,0,0-1.91-1.93,1.85,1.85,0,0,0-1.37.56Zm2.11,2.51a1.2,1.2,0,0,1-.69.22,1.3,1.3,0,0,1-.92-.38,1.34,1.34,0,0,1-.38-1,1.46,1.46,0,0,1,.33-1,1.14,1.14,0,0,1,.92-.41A1.2,1.2,0,0,1,121,31a1.13,1.13,0,0,1,.55.86H121a.5.5,0,0,0-.22-.38.54.54,0,0,0-.75.12,1,1,0,0,0-.17.65.89.89,0,0,0,.18.63.64.64,0,0,0,.45.19.47.47,0,0,0,.36-.13.56.56,0,0,0,.15-.32h.58a1.06,1.06,0,0,1-.43.77Z" transform="translate(-0.08 0)"/></svg>