<?xml version="1.0" standalone="no"?>
<!DOCTYPE svg PUBLIC "-//W3C//DTD SVG 20010904//EN"
 "http://www.w3.org/TR/2001/REC-SVG-20010904/DTD/svg10.dtd">
<svg version="1.0" xmlns="http://www.w3.org/2000/svg"
 width="473.000000pt" height="844.000000pt" viewBox="0 0 473.000000 844.000000"
 preserveAspectRatio="xMidYMid meet">
<metadata>
Created by potrace 1.16, written by Peter Selinger 2001-2019
</metadata>
<g transform="translate(0.000000,844.000000) scale(0.100000,-0.100000)"
fill="#000000" stroke="none">
<path d="M1912 8255 c-119 -26 -242 -101 -242 -147 0 -12 5 -18 13 -15 6 3 50
22 96 43 72 31 99 38 176 42 78 4 98 1 143 -18 63 -27 112 -79 112 -120 0 -37
-40 -84 -104 -120 -82 -48 -88 -44 -65 46 16 59 17 79 8 90 -28 34 -59 -1 -94
-105 -14 -44 -31 -81 -36 -81 -5 0 -26 7 -48 16 -29 11 -45 13 -59 5 -48 -26
-20 -95 44 -107 19 -3 36 -9 38 -13 3 -3 -13 -69 -35 -144 -46 -165 -68 -300
-53 -325 6 -9 21 -18 33 -20 39 -6 58 23 65 96 4 37 26 141 49 232 l42 164 63
23 c135 48 228 140 239 236 8 65 -11 110 -69 162 -80 72 -176 90 -316 60z"/>
<path d="M2600 8086 c-6 -8 -20 -36 -30 -63 -15 -40 -23 -49 -49 -54 l-31 -7
6 49 c5 41 4 50 -11 55 -38 15 -67 -8 -87 -68 -18 -53 -21 -57 -58 -63 -40 -7
-76 -37 -65 -54 3 -6 22 -11 41 -11 20 0 34 -5 34 -12 0 -27 -73 -229 -90
-250 -17 -21 -19 -22 -25 -5 -8 19 2 62 32 140 17 47 17 49 0 62 -51 37 -207
-66 -257 -171 -54 -111 16 -185 113 -120 30 21 38 22 48 10 23 -28 88 -15 136
28 21 20 21 20 51 -2 37 -28 67 -22 115 20 34 29 34 29 52 10 23 -25 66 -26
96 -1 22 17 26 18 52 4 32 -16 67 -8 117 27 l29 21 21 -21 c15 -15 33 -20 69
-20 80 0 129 55 91 102 -16 21 -21 22 -52 10 -19 -6 -38 -12 -41 -12 -10 0 3
47 30 109 13 29 21 62 18 72 -8 23 -50 35 -69 20 -11 -9 -19 -9 -34 0 -65 40
-208 -77 -236 -194 -4 -15 -11 -25 -16 -22 -30 19 16 210 54 226 12 4 86 18
166 29 165 25 210 39 210 70 0 40 -34 43 -202 17 -87 -13 -158 -21 -158 -18 0
3 4 20 9 37 5 18 5 37 -1 47 -11 21 -61 22 -78 3z"/>
<path d="M4192 7928 c-7 -7 -12 -20 -12 -30 0 -11 -7 -18 -20 -18 -22 0 -26
-12 -38 -117 -5 -40 -4 -79 0 -88 13 -23 226 -22 235 1 3 9 2 55 -3 102 -8 74
-12 88 -30 96 -11 5 -26 22 -32 38 -9 24 -16 28 -49 28 -22 0 -44 -5 -51 -12z
m-8 -83 c3 -8 10 -15 16 -15 5 0 10 7 10 15 0 10 10 15 30 15 20 0 30 -5 30
-15 0 -20 17 -19 29 2 5 10 12 15 15 13 9 -10 25 -165 17 -173 -4 -4 -48 -7
-97 -5 l-89 3 2 45 c6 111 21 157 37 115z"/>
<path d="M300 5830 l0 -140 300 0 300 0 0 140 0 140 -300 0 -300 0 0 -140z
m370 20 l6 -25 7 28 c4 15 14 27 21 27 8 0 19 -12 24 -27 10 -26 10 -26 11 -5
1 20 25 41 36 30 2 -2 -2 -26 -9 -53 -9 -38 -17 -50 -31 -50 -12 0 -22 9 -26
25 l-6 25 -4 -25 c-3 -17 -10 -25 -24 -25 -15 0 -22 10 -29 43 -8 37 -12 42
-37 42 -16 0 -29 -4 -29 -10 0 -5 11 -10 25 -10 14 0 25 -4 25 -10 0 -5 -11
-10 -25 -10 -16 0 -25 -6 -25 -15 0 -9 9 -15 25 -15 14 0 25 -4 25 -10 0 -5
-20 -10 -45 -10 l-45 0 0 55 0 56 62 -3 c57 -3 63 -5 68 -28z"/>
<path d="M2800 5830 l0 -140 300 0 300 0 0 140 0 140 -300 0 -300 0 0 -140z
m365 28 l8 -23 4 23 c3 13 12 22 23 22 11 0 20 -9 23 -22 l4 -23 8 23 c7 22
35 31 35 11 0 -5 -5 -30 -11 -55 -8 -32 -16 -44 -30 -44 -11 0 -19 7 -19 15 0
8 -4 15 -10 15 -5 0 -10 -7 -10 -15 0 -8 -8 -15 -19 -15 -14 0 -22 12 -30 45
-10 41 -14 45 -41 45 -17 0 -30 -4 -30 -10 0 -5 11 -10 25 -10 14 0 25 -4 25
-10 0 -5 -11 -10 -25 -10 -16 0 -25 -6 -25 -15 0 -10 10 -15 30 -15 17 0 30
-4 30 -10 0 -5 -20 -10 -45 -10 l-45 0 0 55 0 55 59 0 c52 0 60 -3 66 -22z"/>
<path d="M786 4898 l-40 -20 40 -24 c21 -13 42 -24 47 -24 40 0 -73 -67 -162
-95 -16 -5 -27 -3 -33 6 -8 11 -9 10 -4 -3 4 -15 -1 -18 -32 -18 -52 0 -130
48 -187 115 -26 30 -55 55 -64 55 -38 0 -63 -45 -73 -132 -9 -78 -29 -167 -47
-213 -5 -11 -8 -81 -7 -155 l1 -134 30 -8 c17 -5 145 -13 285 -18 240 -9 386
-26 432 -51 18 -10 18 -11 -1 -38 -19 -26 -27 -29 -103 -34 -46 -4 -141 -7
-211 -7 -129 0 -129 0 -156 28 -25 28 -31 29 -141 34 -63 3 -123 9 -132 13
-23 9 -24 -17 -3 -39 9 -8 14 -20 13 -27 -5 -21 62 -26 467 -35 557 -13 823
-10 995 11 80 9 147 19 150 21 2 3 -2 9 -10 14 -13 8 -12 10 0 14 156 55 165
63 157 138 -4 28 -11 54 -15 57 -5 3 -13 20 -16 37 -4 17 -17 40 -29 51 -26
24 -72 49 -63 35 5 -9 -21 -23 -71 -37 -12 -3 -72 -15 -134 -25 -121 -21 -124
-21 -166 29 -18 20 -16 51 2 51 27 0 65 23 65 40 0 12 -14 21 -45 30 l-44 12
-3 56 -3 56 -40 4 c-22 2 -47 8 -56 13 -18 9 -79 -15 -79 -32 0 -4 -11 -3 -25
3 -14 6 -25 15 -25 20 0 4 -8 8 -17 9 -10 0 -40 13 -68 28 -35 19 -53 36 -60
57 -12 37 -75 94 -103 94 -12 0 -24 5 -27 10 -12 19 -84 50 -117 50 -18 -1
-51 -10 -72 -22z m268 -277 c41 -21 77 -37 79 -35 8 8 72 -42 75 -58 2 -11
-29 -44 -88 -92 -83 -70 -101 -81 -122 -77 -5 0 -8 -3 -8 -8 0 -16 -36 -22
-135 -26 l-95 -3 0 45 c0 35 17 95 36 121 1 2 48 -11 104 -28 124 -36 144 -37
175 -5 32 31 31 68 0 120 -14 22 -25 36 -25 31 0 -5 -11 1 -26 14 -21 21 -27
22 -34 10 -6 -9 -5 -19 0 -24 6 -6 10 -23 10 -38 0 -42 -31 -52 -104 -35 l-59
13 69 57 c38 31 70 57 71 57 2 0 36 -18 77 -39z"/>
<path d="M3116 4703 c-3 -3 -6 -17 -6 -30 0 -15 -6 -23 -17 -23 -9 0 -14 -3
-10 -6 3 -4 -1 -13 -9 -21 -17 -18 -72 -9 -81 13 -3 8 -14 19 -24 25 -16 8
-19 6 -19 -10 0 -11 9 -23 21 -26 18 -6 9 -13 -49 -41 -53 -25 -74 -42 -84
-64 l-13 -31 -6 28 c-6 26 -7 26 -8 -8 l-1 -35 63 7 c34 3 87 14 118 24 72 23
105 16 199 -40 41 -24 75 -43 77 -42 7 8 -20 92 -33 102 -13 9 -13 15 -4 36
10 22 18 26 48 24 36 -2 37 -1 37 36 l0 37 -62 -4 c-52 -3 -62 -1 -66 14 -4
14 -5 14 -6 -3 -2 -18 -3 -18 -17 5 -14 24 -15 24 -11 2 3 -12 1 -20 -4 -16
-5 3 -9 14 -9 24 0 20 -13 33 -24 23z"/>
<path d="M2789 4439 c0 -2 -3 -20 -6 -39 -2 -19 -9 -43 -15 -53 -13 -24 -4
-32 56 -46 55 -13 76 -30 76 -60 0 -19 -6 -21 -58 -21 -31 0 -72 4 -90 10 -28
7 -33 7 -28 -5 3 -9 -1 -15 -10 -15 -25 0 -9 -49 29 -87 17 -18 25 -33 18 -33
-7 0 -10 -4 -6 -9 11 -18 91 -21 665 -25 622 -4 860 5 860 34 0 5 -7 10 -17
12 -17 3 -14 5 77 46 39 18 110 74 110 87 0 3 -16 -6 -35 -19 -19 -13 -58 -30
-87 -37 -32 -9 -53 -20 -55 -30 -7 -25 -75 -41 -70 -17 1 8 -14 15 -38 19 -39
5 -39 5 -10 11 l30 5 -30 -1 c-26 -1 -31 -5 -36 -36 -4 -19 -7 -29 -8 -22 -2
17 -21 15 -43 -5 -17 -15 -18 -15 -18 14 0 29 -2 31 -39 31 -37 1 -39 -1 -47
-36 -4 -22 -9 -30 -11 -19 -3 9 -13 17 -23 17 -11 0 -24 -8 -29 -17 -8 -15
-10 -11 -11 20 l0 37 -45 0 c-42 0 -45 -2 -45 -27 0 -26 -3 -28 -38 -28 l-37
-1 0 55 c0 54 -1 55 -34 65 -28 8 -36 7 -47 -9 -8 -10 -14 -33 -14 -51 0 -39
-10 -47 -44 -34 -21 8 -26 18 -32 60 -4 31 -13 54 -23 59 -9 5 -61 14 -116 21
-162 19 -375 57 -446 79 -74 23 -123 56 -115 77 3 9 -2 14 -13 14 -11 0 -26 3
-35 6 -9 3 -16 5 -17 3z"/>
<path d="M300 1400 l0 -140 300 0 300 0 0 140 0 140 -300 0 -300 0 0 -140z
m370 20 l6 -25 7 28 c4 15 14 27 21 27 8 0 19 -12 24 -27 10 -26 10 -26 11 -5
1 20 25 41 36 30 2 -2 -2 -26 -9 -53 -9 -38 -17 -50 -31 -50 -12 0 -22 9 -26
25 l-6 25 -4 -25 c-3 -17 -10 -25 -24 -25 -15 0 -22 10 -29 43 -8 37 -12 42
-37 42 -16 0 -29 -4 -29 -10 0 -5 11 -10 25 -10 14 0 25 -4 25 -10 0 -5 -11
-10 -25 -10 -16 0 -25 -6 -25 -15 0 -9 9 -15 25 -15 14 0 25 -4 25 -10 0 -5
-20 -10 -45 -10 l-45 0 0 55 0 56 62 -3 c57 -3 63 -5 68 -28z"/>
<path d="M3535 785 c-22 -8 -59 -34 -82 -58 -86 -91 -84 -209 6 -298 28 -29
61 -51 86 -58 54 -15 686 -15 740 0 79 22 155 124 155 209 0 85 -76 187 -155
209 -63 17 -699 14 -750 -4z m143 -137 c22 -22 13 -30 -24 -23 -24 4 -34 3
-29 -4 3 -6 13 -11 21 -11 8 0 23 -9 34 -20 l20 -20 0 30 c0 23 4 30 20 30 17
0 20 -7 20 -41 0 -24 4 -38 10 -34 6 3 10 22 10 41 l0 34 65 0 c50 0 66 -4 74
-17 10 -17 10 -17 11 0 0 23 85 25 98 1 8 -14 10 -14 21 0 16 19 62 21 79 4 7
-7 12 -24 12 -38 0 -14 -5 -31 -12 -38 -17 -17 -63 -15 -79 4 -11 14 -13 14
-21 0 -5 -9 -20 -16 -33 -16 -18 0 -25 -5 -25 -20 0 -13 -7 -20 -20 -20 -16 0
-20 7 -20 38 -1 30 -3 34 -11 20 -5 -10 -21 -18 -34 -18 -18 0 -25 -5 -25 -20
0 -13 -7 -20 -20 -20 -13 0 -20 7 -20 20 0 17 -7 20 -45 20 -31 0 -47 5 -51
15 -5 13 -8 13 -21 0 -17 -18 -74 -20 -91 -3 -22 22 -12 30 29 23 29 -5 40 -4
35 4 -4 6 -13 11 -20 11 -8 0 -24 8 -36 18 -19 16 -21 22 -11 40 13 25 68 31
89 10z"/>
</g>
</svg>
