<?xml version="1.0" standalone="no"?>
<!DOCTYPE svg PUBLIC "-//W3C//DTD SVG 20010904//EN"
 "http://www.w3.org/TR/2001/REC-SVG-20010904/DTD/svg10.dtd">
<svg version="1.0" xmlns="http://www.w3.org/2000/svg"
 width="462.000000pt" height="824.000000pt" viewBox="0 0 462.000000 824.000000"
 preserveAspectRatio="xMidYMid meet">
<metadata>
Created by potrace 1.16, written by Peter Selinger 2001-2019
</metadata>
<g transform="translate(0.000000,824.000000) scale(0.100000,-0.100000)"
fill="#000000" stroke="none">
<path d="M1932 8015 c-119 -26 -242 -101 -242 -147 0 -12 5 -18 13 -15 6 3 50
22 96 43 72 31 99 38 176 42 78 4 98 1 143 -18 63 -27 112 -79 112 -120 0 -37
-40 -84 -104 -120 -82 -48 -88 -44 -65 46 16 59 17 79 8 90 -28 34 -59 -1 -94
-105 -14 -44 -31 -81 -36 -81 -5 0 -26 7 -48 16 -29 11 -45 13 -59 5 -48 -26
-20 -95 44 -107 19 -3 36 -9 38 -13 3 -3 -13 -69 -35 -144 -46 -165 -68 -300
-53 -325 6 -9 21 -18 33 -20 39 -6 58 23 65 96 4 37 26 141 49 232 l42 164 63
23 c135 48 228 140 239 236 8 65 -11 110 -69 162 -80 72 -176 90 -316 60z"/>
<path d="M2620 7846 c-6 -8 -20 -36 -30 -63 -15 -40 -23 -49 -49 -54 l-31 -7
6 49 c5 41 4 50 -11 55 -38 15 -67 -8 -87 -68 -18 -53 -21 -57 -58 -63 -40 -7
-76 -37 -65 -54 3 -6 22 -11 41 -11 20 0 34 -5 34 -12 0 -27 -73 -229 -90
-250 -17 -21 -19 -22 -25 -5 -8 19 2 62 32 140 17 47 17 49 0 62 -51 37 -207
-66 -257 -171 -54 -111 16 -185 113 -120 30 21 38 22 48 10 23 -28 88 -15 136
28 21 20 21 20 51 -2 37 -28 67 -22 115 20 34 29 34 29 52 10 23 -25 66 -26
96 -1 22 17 26 18 52 4 32 -16 67 -8 117 27 l29 21 21 -21 c15 -15 33 -20 69
-20 80 0 129 55 91 102 -16 21 -21 22 -52 10 -19 -6 -38 -12 -41 -12 -10 0 3
47 30 109 13 29 21 62 18 72 -8 23 -50 35 -69 20 -11 -9 -19 -9 -34 0 -65 40
-208 -77 -236 -194 -4 -15 -11 -25 -16 -22 -30 19 16 210 54 226 12 4 86 18
166 29 165 25 210 39 210 70 0 40 -34 43 -202 17 -87 -13 -158 -21 -158 -18 0
3 4 20 9 37 5 18 5 37 -1 47 -11 21 -61 22 -78 3z"/>
<path d="M4212 7688 c-7 -7 -12 -20 -12 -30 0 -11 -7 -18 -20 -18 -22 0 -26
-12 -38 -117 -5 -40 -4 -79 0 -88 13 -23 226 -22 235 1 3 9 2 55 -3 102 -8 74
-12 88 -30 96 -11 5 -26 22 -32 38 -9 24 -16 28 -49 28 -22 0 -44 -5 -51 -12z
m-8 -83 c3 -8 10 -15 16 -15 5 0 10 7 10 15 0 10 10 15 30 15 20 0 30 -5 30
-15 0 -20 17 -19 29 2 5 10 12 15 15 13 9 -10 25 -165 17 -173 -4 -4 -48 -7
-97 -5 l-89 3 2 45 c6 111 21 157 37 115z"/>
<path d="M270 5855 l0 -45 40 0 40 0 0 -155 0 -155 50 0 50 0 0 155 0 155 40
0 40 0 0 45 0 45 -130 0 -130 0 0 -45z"/>
<path d="M560 5700 l0 -200 50 0 50 0 0 80 0 80 35 0 35 0 0 -80 0 -80 50 0
50 0 0 200 0 200 -50 0 -50 0 0 -75 0 -75 -35 0 -35 0 0 75 0 75 -50 0 -50 0
0 -200z"/>
<path d="M880 5700 l0 -200 120 0 120 0 0 40 0 39 -67 3 -68 3 -3 43 -3 42 65
0 66 0 0 40 0 40 -66 0 -65 0 3 33 c3 32 3 32 66 35 l62 3 0 39 0 40 -115 0
-115 0 0 -200z"/>
<path d="M1300 5701 l0 -201 50 0 49 0 3 78 3 77 50 5 c28 3 60 11 71 17 52
29 58 143 10 192 -25 24 -34 26 -131 29 l-105 4 0 -201z"/>
<path d="M1612 5723 c-23 -98 -45 -188 -48 -200 -6 -22 -3 -23 49 -23 56 0 56
0 59 33 3 31 5 32 48 32 43 0 45 -1 48 -32 3 -33 4 -33 58 -33 30 0 54 3 54 8
0 4 -22 93 -48 197 l-48 190 -65 3 -64 3 -43 -178z"/>
<path d="M1840 5855 l0 -45 40 0 40 0 0 -155 0 -155 50 0 50 0 0 155 0 155 80
0 80 0 0 -155 0 -155 50 0 50 0 0 155 0 155 40 0 40 0 0 45 0 45 -260 0 -260
0 0 -45z"/>
<path d="M2382 5723 c-23 -98 -45 -188 -48 -200 -6 -22 -3 -23 49 -23 56 0 56
0 59 33 3 31 5 32 48 32 43 0 45 -1 48 -32 3 -33 4 -33 58 -33 30 0 54 3 54 8
0 4 -22 93 -48 197 l-48 190 -65 3 -64 3 -43 -178z"/>
<path d="M2310 5248 c-17 -56 -47 -152 -65 -211 l-33 -108 41 3 42 3 55 182
c31 100 58 185 61 188 3 3 18 -68 33 -158 16 -89 30 -172 33 -184 5 -20 11
-23 58 -23 62 0 57 -8 76 148 7 56 15 100 18 96 3 -3 13 -58 21 -122 l15 -117
56 -3 56 -3 23 133 c12 73 28 163 35 201 l12 67 -47 0 c-56 0 -55 2 -66 -134
-12 -152 -18 -153 -40 -5 l-19 134 -46 3 -46 3 -17 -128 c-9 -70 -19 -129 -21
-131 -5 -5 -12 39 -25 158 -6 52 -12 95 -13 96 -1 1 -39 5 -84 9 l-82 7 -31
-104z"/>
<path d="M316 5150 c-25 -104 -46 -194 -46 -200 0 -5 22 -10 49 -10 51 0 61 9
61 51 0 16 7 19 45 19 43 0 44 -1 51 -35 6 -35 6 -35 60 -35 38 0 52 4 49 13
-2 6 -20 80 -40 162 -20 83 -40 167 -46 188 l-10 37 -64 0 -63 0 -46 -190z"/>
<path d="M600 5185 c0 -182 9 -217 64 -240 77 -33 167 -9 191 49 11 26 15 77
15 191 l0 155 -50 0 -50 0 -2 -161 c-3 -138 -5 -163 -20 -172 -12 -8 -21 -7
-32 2 -13 11 -16 40 -16 172 l0 159 -50 0 -50 0 0 -155z"/>
<path d="M890 5295 l0 -45 40 0 40 0 0 -155 0 -155 50 0 50 0 0 155 0 155 40
0 40 0 0 45 0 45 -130 0 -130 0 0 -45z"/>
<path d="M1170 5196 c0 -79 3 -157 6 -175 15 -71 104 -109 189 -80 65 23 75
54 75 242 l0 157 -50 0 -50 0 0 -154 c0 -85 -3 -161 -6 -170 -8 -22 -41 -20
-54 3 -5 11 -10 86 -10 170 l0 151 -50 0 -50 0 0 -144z"/>
<path d="M1490 5140 l0 -200 45 0 44 0 3 143 3 142 18 -95 c39 -203 34 -190
73 -190 38 0 33 -13 68 165 l24 120 1 -142 1 -143 50 0 50 0 0 200 0 200 -75
0 c-41 0 -75 -1 -75 -3 0 -12 -41 -221 -44 -224 -2 -2 -11 40 -21 94 -25 145
-16 133 -96 133 l-69 0 0 -200z"/>
<path d="M1920 5140 l0 -200 45 0 44 0 3 123 3 122 35 -122 35 -123 57 0 58 0
0 200 0 200 -50 0 -50 0 -1 -122 -1 -123 -24 85 c-13 47 -29 102 -34 123 l-11
37 -54 0 -55 0 0 -200z"/>
<path d="M2870 5140 l0 -200 50 0 50 0 0 200 0 200 -50 0 -50 0 0 -200z"/>
<path d="M3020 5140 l0 -200 45 0 45 0 0 115 c0 63 3 115 8 115 4 0 21 -51 38
-113 l30 -112 57 -3 57 -3 0 201 0 200 -45 0 -45 0 0 -115 c0 -63 -3 -115 -8
-115 -4 0 -21 51 -37 113 l-30 112 -57 3 -58 3 0 -201z"/>
<path d="M3330 5295 c0 -45 0 -45 35 -45 l35 0 0 -155 0 -155 50 0 50 0 0 155
0 155 40 0 40 0 0 45 0 45 -125 0 -125 0 0 -45z"/>
<path d="M3610 5140 l0 -200 120 0 120 0 0 40 0 39 -67 3 -68 3 -3 43 -3 42
65 0 66 0 0 40 0 40 -66 0 -65 0 3 33 3 32 68 3 67 3 0 39 0 40 -120 0 -120 0
0 -200z"/>
<path d="M3900 5141 l0 -201 50 0 50 0 0 81 0 80 28 -3 c25 -3 27 -7 30 -48 1
-25 5 -60 7 -77 6 -33 7 -33 61 -33 51 0 54 1 44 19 -5 11 -10 46 -10 79 0 60
-17 91 -51 92 -8 1 -2 7 13 15 51 28 57 124 11 167 -22 20 -36 23 -129 26
l-104 4 0 -201z"/>
<path d="M1694 4784 c-12 -3 -33 -18 -48 -33 -46 -48 -58 -227 -20 -319 22
-55 107 -78 179 -48 42 18 62 48 70 109 l7 47 -51 0 -51 0 0 -33 c0 -46 -23
-76 -47 -61 -15 10 -18 28 -21 125 -2 85 1 119 11 133 20 27 45 14 53 -28 6
-35 8 -36 50 -36 l44 0 0 40 c0 60 -40 99 -105 104 -27 3 -60 2 -71 0z"/>
<path d="M1995 4783 c-61 -16 -89 -80 -89 -203 0 -98 14 -147 50 -181 21 -20
36 -24 89 -24 53 0 68 4 89 24 36 34 50 83 50 181 0 143 -32 197 -120 205 -27
2 -58 1 -69 -2z m75 -83 c6 -12 9 -66 8 -131 -2 -92 -6 -114 -20 -122 -12 -8
-21 -7 -32 2 -13 11 -16 36 -16 130 0 116 6 141 37 141 7 0 17 -9 23 -20z"/>
<path d="M3093 4775 c-49 -21 -66 -65 -71 -180 -6 -156 24 -211 120 -222 90
-10 148 41 148 132 l0 35 -49 0 -50 0 -3 -47 c-3 -43 -5 -48 -28 -48 -31 0
-38 24 -38 135 0 101 8 134 32 138 23 5 36 -14 36 -50 0 -27 2 -28 50 -28 47
0 50 2 50 25 0 14 -7 41 -15 61 -24 57 -110 81 -182 49z"/>
<path d="M3803 4775 c-54 -23 -68 -63 -68 -195 0 -133 14 -172 70 -196 71 -29
151 -8 182 48 14 26 18 56 18 148 0 92 -4 122 -18 148 -31 56 -114 78 -184 47z
m98 -90 c9 -40 9 -184 0 -215 -5 -18 -14 -25 -31 -25 -19 0 -26 7 -33 35 -10
40 -5 208 7 228 15 24 50 9 57 -23z"/>
<path d="M343 4765 c-37 -16 -53 -42 -53 -84 0 -30 1 -31 45 -31 41 0 45 2 45
25 0 29 31 50 48 33 27 -27 13 -67 -49 -134 -67 -75 -84 -103 -94 -157 l-7
-37 131 0 131 0 0 40 0 40 -65 0 c-36 0 -65 4 -65 8 0 4 23 30 51 57 28 28 57
62 65 77 17 32 18 101 3 130 -23 43 -122 61 -186 33z"/>
<path d="M644 4766 c-46 -21 -64 -75 -64 -194 1 -124 20 -174 75 -192 46 -15
110 -8 137 17 36 31 48 77 48 178 0 102 -12 147 -49 179 -27 24 -106 31 -147
12z m96 -191 c0 -111 -2 -125 -18 -134 -35 -18 -42 6 -42 134 0 128 7 152 42
134 16 -9 18 -23 18 -134z"/>
<path d="M944 4774 c-32 -7 -64 -47 -71 -88 l-6 -36 46 0 c42 0 46 2 52 29 10
45 43 49 58 8 11 -28 -11 -69 -68 -127 -56 -56 -85 -110 -85 -155 l0 -25 130
0 130 0 0 40 0 40 -72 0 -71 0 61 63 c86 90 103 174 47 227 -23 21 -104 34
-151 24z"/>
<path d="M1231 4767 c-50 -25 -66 -71 -66 -192 0 -121 16 -167 66 -192 33 -17
94 -16 129 2 51 26 64 66 64 190 0 124 -13 164 -64 190 -35 18 -96 19 -129 2z
m93 -80 c7 -28 7 -196 0 -224 -8 -28 -30 -36 -49 -17 -22 22 -22 236 0 258 19
19 41 11 49 -17z"/>
<path d="M2230 4580 l0 -200 115 0 115 0 0 40 0 39 -62 3 -63 3 -3 158 -3 157
-49 0 -50 0 0 -200z"/>
<path d="M2490 4580 l0 -200 115 0 115 0 0 40 0 39 -62 3 -63 3 -3 158 -3 157
-49 0 -50 0 0 -200z"/>
<path d="M2750 4580 l0 -200 120 0 120 0 0 40 0 39 -67 3 -68 3 -3 43 -3 42
65 0 66 0 0 40 0 40 -66 0 -65 0 3 33 c3 32 3 32 66 35 l62 3 0 39 0 40 -115
0 -115 0 0 -200z"/>
<path d="M3310 4735 c0 -45 0 -45 35 -45 l35 0 0 -155 0 -155 50 0 50 0 0 155
0 155 40 0 40 0 0 45 0 45 -125 0 -125 0 0 -45z"/>
<path d="M3590 4580 l0 -200 50 0 50 0 0 200 0 200 -50 0 -50 0 0 -200z"/>
<path d="M4050 4580 l0 -200 50 0 50 0 1 118 1 117 18 -60 c10 -33 25 -86 34
-117 l17 -58 54 0 55 0 0 200 0 200 -45 0 -45 0 0 -122 c0 -76 -4 -118 -9
-109 -5 8 -22 63 -37 123 l-28 108 -58 0 -58 0 0 -200z"/>
<path d="M504 4216 c-43 -19 -64 -53 -64 -104 0 -65 20 -93 89 -127 62 -29 81
-55 67 -90 -12 -32 -66 -10 -66 27 0 15 -9 18 -51 18 l-52 0 6 -36 c7 -44 23
-63 64 -81 63 -26 146 -10 187 36 26 28 27 108 3 145 -10 14 -46 40 -81 56
-66 32 -84 56 -62 86 17 22 50 14 54 -14 3 -19 9 -22 48 -22 41 0 44 2 44 26
0 38 -18 64 -55 80 -43 17 -90 17 -131 0z"/>
<path d="M290 4020 l0 -200 50 0 50 0 0 200 0 200 -50 0 -50 0 0 -200z"/>
<path d="M892 4043 c-23 -98 -45 -188 -48 -200 -6 -22 -3 -23 49 -23 56 0 56
0 59 33 3 31 5 32 48 32 43 0 45 -1 48 -32 3 -33 4 -33 58 -33 30 0 54 3 54 8
0 4 -22 93 -48 197 l-48 190 -65 3 -64 3 -43 -178z"/>
<path d="M1133 4198 c4 -13 23 -103 44 -200 l37 -178 67 0 66 0 42 193 c22
105 41 196 41 200 0 4 -24 7 -52 5 l-53 -3 -20 -145 c-12 -82 -24 -136 -27
-125 -4 11 -14 77 -24 148 l-17 127 -55 0 c-51 0 -54 -1 -49 -22z"/>
<path d="M1495 4198 c-3 -13 -25 -103 -49 -200 l-43 -178 53 0 c53 0 53 0 60
35 6 34 8 35 49 35 41 0 43 -1 49 -35 7 -35 7 -35 60 -35 l54 0 -50 200 -50
200 -64 0 c-58 0 -64 -2 -69 -22z"/>
<path d="M1740 4020 l0 -200 50 0 50 0 0 200 0 200 -50 0 -50 0 0 -200z"/>
<path d="M1900 4020 l0 -200 165 0 164 0 7 35 c6 34 8 35 49 35 41 0 43 -1 49
-35 7 -35 7 -35 60 -35 l54 0 -50 200 -50 200 -64 0 -63 0 -10 -37 c-5 -21
-24 -100 -42 -175 -18 -76 -37 -138 -41 -138 -4 0 -8 7 -8 15 0 12 -13 15 -60
15 l-60 0 0 160 0 160 -50 0 -50 0 0 -200z"/>
<path d="M2470 4021 l0 -201 90 0 c141 0 180 24 180 112 0 47 -22 88 -47 88
-12 0 -9 7 11 25 21 20 26 33 26 73 0 39 -5 53 -26 73 -23 22 -36 24 -130 27
l-104 4 0 -201z"/>
<path d="M2790 4020 l0 -200 115 0 115 0 0 40 0 39 -62 3 -63 3 -3 158 -3 157
-49 0 -50 0 0 -200z"/>
<path d="M3050 4020 l0 -200 120 0 120 0 0 40 0 39 -67 3 -68 3 -3 43 -3 42
65 0 66 0 0 40 0 40 -66 0 -65 0 3 33 c3 32 3 32 66 35 l62 3 0 39 0 40 -115
0 -115 0 0 -200z"/>
<path d="M855 3662 c-33 -11 -51 -25 -71 -57 -16 -25 -19 -48 -19 -156 0 -114
2 -131 21 -156 35 -47 119 -56 158 -17 15 14 17 14 22 0 4 -10 18 -16 35 -16
l29 0 0 110 0 110 -65 0 -65 0 0 -35 c0 -28 4 -35 20 -35 22 0 26 -23 10 -64
-13 -36 -47 -35 -57 2 -10 36 -10 189 0 225 10 38 45 37 58 -3 10 -27 15 -30
56 -30 l46 0 -6 36 c-3 20 -12 43 -19 51 -28 35 -102 51 -153 35z"/>
<path d="M2203 3656 c-54 -25 -68 -65 -68 -196 0 -135 14 -172 73 -197 45 -19
115 -12 151 14 37 28 50 74 50 183 0 109 -13 155 -51 183 -34 25 -113 32 -155
13z m97 -82 c6 -14 10 -65 10 -114 0 -102 -11 -140 -40 -140 -26 0 -35 34 -35
140 0 47 4 97 8 113 10 36 44 37 57 1z"/>
<path d="M300 3460 l0 -200 50 0 50 0 0 81 0 80 28 -3 c23 -3 27 -8 30 -38 1
-19 5 -54 8 -77 l5 -43 54 0 c54 0 54 0 45 26 -6 14 -10 49 -10 77 0 56 -5 68
-33 84 -17 9 -17 11 7 26 31 21 42 73 26 122 -17 50 -55 65 -170 65 l-90 0 0
-200z"/>
<path d="M620 3460 l0 -200 50 0 50 0 0 200 0 200 -50 0 -50 0 0 -200z"/>
<path d="M1080 3460 l0 -200 50 0 50 0 0 80 0 80 35 0 35 0 0 -80 0 -80 50 0
50 0 0 200 0 200 -50 0 -50 0 0 -75 0 -75 -35 0 -35 0 0 75 0 75 -50 0 -50 0
0 -200z"/>
<path d="M1380 3615 c0 -45 0 -45 35 -45 l35 0 0 -155 0 -155 50 0 50 0 0 155
0 155 40 0 40 0 0 45 0 45 -125 0 -125 0 0 -45z"/>
<path d="M1810 3460 l0 -200 45 0 44 0 3 123 3 122 35 -122 35 -123 57 0 58 0
0 200 0 200 -50 0 -50 0 -1 -122 -1 -123 -24 85 c-13 47 -29 102 -34 123 l-11
37 -54 0 -55 0 0 -200z"/>
<path d="M2434 3633 c3 -16 17 -95 31 -178 14 -82 28 -160 30 -172 5 -20 12
-23 59 -23 62 0 55 -15 77 164 15 114 21 106 39 -51 l13 -113 56 0 57 0 32
193 c18 105 32 195 32 200 0 4 -20 7 -45 7 -52 0 -48 9 -65 -155 -6 -60 -13
-112 -16 -114 -2 -2 -4 1 -4 7 0 16 -29 212 -35 240 -5 19 -12 22 -49 22 l-44
0 -11 -77 c-6 -43 -14 -102 -17 -132 -9 -73 -19 -48 -34 92 l-12 117 -50 0
c-49 0 -50 0 -44 -27z"/>
<path d="M2417 1692 c-15 -3 -17 -18 -17 -138 l0 -134 35 0 35 0 0 56 c0 47 3
55 18 52 13 -2 18 -16 22 -53 5 -49 6 -50 40 -53 l35 -3 -3 53 c-2 29 -10 60
-17 68 -11 12 -11 18 1 34 18 25 18 67 0 91 -13 19 -105 35 -149 27z"/>
<path d="M510 1555 l0 -135 64 0 c78 0 103 17 117 79 13 59 2 148 -22 172 -15
15 -34 19 -89 19 l-70 0 0 -135z"/>
<path d="M751 1671 c-25 -25 -35 -76 -29 -148 4 -46 10 -61 32 -80 36 -31 86
-30 123 1 27 23 28 29 28 109 0 77 -3 88 -24 111 -31 33 -100 37 -130 7z"/>
<path d="M972 1683 c-25 -10 -42 -62 -42 -132 0 -85 5 -98 41 -116 69 -36 139
0 139 71 0 33 -2 36 -22 30 -13 -3 -28 -6 -35 -6 -6 0 -13 -12 -15 -27 -2 -17
-9 -28 -18 -28 -12 0 -16 17 -18 83 -3 76 -1 82 17 82 13 0 21 -8 23 -22 2
-18 11 -24 36 -26 29 -3 32 -1 32 25 0 34 -8 46 -37 62 -22 11 -77 14 -101 4z"/>
<path d="M1130 1603 c0 -112 13 -161 46 -173 42 -16 81 -11 111 14 27 24 28
27 30 136 l3 111 -38 -3 -37 -3 -1 -70 c-1 -128 -3 -145 -19 -145 -8 0 -15 6
-16 13 -1 6 -2 19 -3 27 -2 8 -3 52 -4 98 l-2 82 -35 0 -35 0 0 -87z"/>
<path d="M1340 1555 l0 -135 35 0 35 0 1 83 1 82 16 -80 c16 -74 19 -80 42
-80 22 0 26 6 36 50 7 28 13 66 15 85 1 19 5 -3 8 -50 l6 -85 30 0 30 0 3 133
3 132 -50 0 c-55 0 -55 0 -67 -82 -3 -27 -10 -48 -14 -48 -4 0 -10 23 -14 50
-10 78 -12 80 -67 80 l-49 0 0 -135z"/>
<path d="M1630 1555 l0 -135 80 0 80 0 0 30 c0 29 -2 30 -45 30 -41 0 -45 2
-45 25 0 23 4 25 40 25 38 0 40 2 40 31 0 29 -2 30 -37 27 -33 -3 -38 0 -41
20 -3 20 1 22 42 22 44 0 46 1 46 30 l0 30 -80 0 -80 0 0 -135z"/>
<path d="M1820 1555 l0 -135 30 0 30 0 1 78 0 77 23 -75 c22 -72 24 -75 56
-78 18 -2 37 1 42 6 5 5 6 61 2 136 l-7 126 -28 0 c-28 0 -28 0 -31 -72 l-3
-73 -19 73 -18 72 -39 0 -39 0 0 -135z"/>
<path d="M2020 1660 c0 -25 4 -30 25 -30 24 0 24 -1 27 -102 l3 -103 33 -3 32
-3 0 105 0 106 25 0 c21 0 25 5 25 30 l0 30 -85 0 -85 0 0 -30z"/>
<path d="M2206 1578 c-15 -62 -29 -123 -33 -136 -5 -22 -3 -23 33 -20 32 2 40
7 42 26 3 17 10 22 33 22 24 0 29 -4 29 -25 0 -22 4 -25 35 -25 42 0 42 3 14
113 -43 174 -34 157 -83 157 l-44 0 -26 -112z"/>
<path d="M2590 1682 c0 -6 14 -42 30 -80 21 -50 30 -87 30 -126 l0 -56 35 0
35 0 0 53 c0 38 10 76 35 135 l34 82 -38 0 c-36 0 -39 -2 -51 -42 l-13 -43
-12 40 c-11 36 -15 40 -48 43 -21 2 -37 -1 -37 -6z"/>
<path d="M2940 1660 c0 -27 3 -30 30 -30 l30 0 0 -106 0 -105 33 3 32 3 -3
102 -2 102 27 3 c22 2 29 9 31 31 l3 27 -90 0 -91 0 0 -30z"/>
<path d="M3130 1555 l0 -135 35 0 35 0 0 55 c0 48 3 55 19 55 17 0 20 -8 23
-52 3 -52 4 -53 35 -56 l32 -3 3 63 c2 35 2 96 0 136 l-4 72 -34 0 -34 0 0
-50 c0 -43 -3 -50 -20 -50 -17 0 -20 7 -20 50 l0 50 -35 0 -35 0 0 -135z"/>
<path d="M3350 1668 c-2 -86 -2 -160 -1 -201 l1 -48 78 3 c76 3 77 3 80 31 3
26 2 27 -42 27 -42 0 -46 2 -46 25 0 23 4 25 41 25 38 0 40 1 37 28 -3 24 -7
27 -40 26 -34 -1 -38 2 -38 22 0 21 5 24 40 24 38 0 40 2 40 30 l0 30 -75 0
c-71 0 -75 -1 -75 -22z"/>
<path d="M678 1303 c-10 -3 -18 -13 -18 -23 0 -11 -5 -43 -12 -72 l-11 -53 -8
35 c-4 19 -10 52 -13 73 -7 37 -7 37 -56 37 l-50 0 0 -135 0 -135 30 0 29 0 3
83 c3 86 8 82 28 -26 11 -54 13 -58 38 -55 24 3 27 8 39 82 7 44 16 82 18 85
3 2 5 -35 5 -82 l0 -87 29 0 29 0 4 118 c5 154 4 158 -35 158 -18 0 -40 -1
-49 -3z"/>
<path d="M1013 1293 c-3 -7 -3 -43 -1 -80 4 -70 -1 -64 -27 30 l-16 57 -40 0
-40 0 3 -132 3 -133 30 0 30 0 4 70 3 70 22 -70 c21 -69 22 -70 59 -73 l37 -3
0 134 0 135 -31 4 c-20 3 -33 0 -36 -9z"/>
<path d="M1117 1303 c-9 -8 -9 -131 -1 -212 7 -59 8 -61 35 -61 l29 0 0 72 c0
39 3 68 6 65 4 -3 14 -35 24 -69 17 -62 18 -63 53 -66 l37 -3 0 135 0 136 -30
0 -29 0 -3 -77 -3 -78 -19 77 c-15 60 -24 78 -40 82 -28 8 -51 7 -59 -1z"/>
<path d="M3123 1303 c-22 -4 -23 -8 -23 -111 0 -123 10 -147 65 -158 49 -9 91
11 104 48 6 17 11 73 11 124 l0 94 -35 0 -35 0 0 -104 c0 -58 -4 -107 -8 -110
-23 -14 -31 16 -34 114 -2 59 -7 104 -13 105 -5 1 -20 0 -32 -2z"/>
<path d="M3333 1303 c-23 -4 -23 -7 -23 -139 l0 -134 35 0 35 0 1 68 c0 37 2
63 4 57 2 -5 11 -36 20 -68 l17 -58 36 3 37 3 3 133 3 132 -36 0 -35 0 -1 -67
-1 -68 -15 50 c-28 98 -28 98 -80 88z"/>
<path d="M792 1168 l3 -133 33 -3 32 -3 0 135 0 136 -35 0 -36 0 3 -132z"/>
<path d="M1340 1165 l0 -135 119 0 c116 0 120 1 123 23 5 33 55 37 60 5 2 -19
10 -24 42 -26 33 -3 38 -1 34 15 -3 10 -18 71 -33 136 l-29 117 -43 0 c-48 0
-38 18 -89 -170 -12 -47 -23 -75 -23 -64 -1 24 -32 37 -68 28 -20 -5 -23 -2
-23 20 0 24 4 26 40 26 37 0 40 2 40 29 0 28 -1 29 -40 24 -38 -5 -40 -4 -40
21 0 24 3 26 40 26 38 0 40 2 40 30 l0 30 -75 0 -75 0 0 -135z"/>
<path d="M1730 1164 l0 -135 33 3 c31 3 32 5 35 51 3 39 6 47 23 47 28 0 75
26 83 45 13 34 6 85 -14 105 -16 16 -33 20 -90 20 l-70 0 0 -136z"/>
<path d="M1959 1281 c-41 -33 -44 -190 -5 -229 11 -11 34 -17 67 -17 41 0 54
5 69 23 41 51 33 195 -13 227 -30 21 -90 19 -118 -4z"/>
<path d="M2140 1165 l0 -135 80 0 80 0 0 30 c0 26 -3 30 -29 30 -59 0 -61 3
-61 111 l0 99 -35 0 -35 0 0 -135z"/>
<path d="M2310 1165 l0 -135 35 0 35 0 0 135 0 135 -35 0 -35 0 0 -135z"/>
<path d="M2435 1275 c-45 -44 -26 -99 46 -136 27 -13 39 -26 37 -37 -5 -26
-38 -28 -45 -3 -6 22 -28 27 -52 12 -23 -14 -5 -57 29 -71 37 -15 95 -7 121
16 25 22 25 85 1 107 -10 9 -34 23 -55 32 -41 17 -53 55 -17 55 11 0 20 -7 20
-15 0 -10 11 -15 35 -15 43 0 46 20 10 55 -18 19 -35 25 -65 25 -30 0 -47 -6
-65 -25z"/>
<path d="M2717 1288 c-9 -7 -21 -26 -27 -41 -15 -40 6 -77 55 -101 45 -20 56
-33 48 -53 -7 -18 -32 -17 -39 2 -8 20 -74 21 -74 1 0 -8 9 -24 19 -37 25 -31
108 -34 139 -5 46 41 31 101 -36 136 -51 27 -69 60 -32 60 11 0 23 -7 26 -15
4 -9 19 -15 35 -15 36 0 38 22 4 55 -27 28 -89 34 -118 13z"/>
<path d="M2921 1283 c-41 -33 -48 -148 -15 -215 27 -52 114 -48 150 7 25 39
24 157 -3 193 -26 35 -97 43 -132 15z"/>
<path d="M3530 1165 l0 -135 61 0 c33 0 69 5 81 11 42 22 60 112 38 191 -15
52 -42 68 -117 68 l-63 0 0 -135z"/>
<path d="M3529 532 c-97 -51 -143 -167 -105 -266 21 -55 91 -121 142 -135 53
-15 686 -15 739 0 56 16 129 91 145 149 28 102 -16 204 -109 252 l-53 28 -353
0 -353 0 -53 -28z m169 -124 c22 -22 13 -30 -24 -23 -24 4 -34 3 -29 -4 3 -6
13 -11 21 -11 8 0 23 -9 34 -20 l20 -20 0 30 c0 23 4 30 20 30 17 0 20 -7 20
-41 0 -24 4 -38 10 -34 6 3 10 22 10 41 l0 34 65 0 c50 0 66 -4 74 -17 10 -17
10 -17 11 0 0 23 85 25 98 1 8 -14 10 -14 21 0 16 19 62 21 79 4 7 -7 12 -24
12 -38 0 -14 -5 -31 -12 -38 -17 -17 -63 -15 -79 4 -11 14 -13 14 -21 0 -5 -9
-20 -16 -33 -16 -18 0 -25 -5 -25 -20 0 -13 -7 -20 -20 -20 -16 0 -20 7 -20
38 -1 30 -3 34 -11 20 -5 -10 -21 -18 -34 -18 -18 0 -25 -5 -25 -20 0 -13 -7
-20 -20 -20 -13 0 -20 7 -20 20 0 17 -7 20 -45 20 -31 0 -47 5 -51 15 -5 13
-8 13 -21 0 -17 -18 -74 -20 -91 -3 -22 22 -12 30 29 23 29 -5 40 -4 35 4 -4
6 -13 11 -20 11 -8 0 -24 8 -36 18 -19 16 -21 22 -11 40 13 25 68 31 89 10z"/>
</g>
</svg>
