<svg id="Layer_1" data-name="Layer 1" xmlns="http://www.w3.org/2000/svg" viewBox="0 0 160.37 115.25"><defs><style>.cls-1{fill:#fff;}</style></defs><title>pattagolo</title><path class="cls-1" d="M66.29,78.2c5.29-1.76,12.48-19,13.8-30.47l-9.16-2.62-.35-2c2.44-1.24,4.79-3.17,7.36-3.55,4.79-.7,6.88-3.4,7.9-7.69a19.33,19.33,0,0,1,2.09-5.56c1.76-2.87,4.88-4.37,7.62-2.5,1.6,1.09,2,4.34,2.38,6.7.23,1.33-.6,2.84-1,4.4,4.83,1,7.76-.95,9.3-5.36a55.5,55.5,0,0,1,2.22-6.06c1.55-3.21,4.15-4.79,7.74-3.73s4,4.08,3.46,7.26c-.23,1.45-.63,2.88-1.16,5.26,9.29-1.58,18-3.17,26.78-4.5a39.48,39.48,0,0,1,10.4-.44c1.76.21,4.26,2,4.65,3.51.33,1.27-1.63,4.22-3.1,4.67A165.49,165.49,0,0,1,138,40c-6.22,1.06-12.54,1.55-18.83,2.12-3.23.29-5.21,1.77-6.12,4.86-1.5,5.1-3.27,10.12-4.52,15.27-.48,2,.18,4.18.32,6.28l1.64.16c.78-1.88,1.63-3.73,2.33-5.64,3.3-9.09,9.1-15.93,18.4-19,2.51-.82,5.64.28,8.48.38,1.46,0,2.93-.3,4.38-.27,2.22.06,5.42-.53,6.4.65,1.26,1.52,1.39,4.69.83,6.84-.78,3-2.93,5.59-4,8.54-.82,2.27-.86,4.82-1.43,8.35,1.91-.95,2.44-1.25,3-1.48,3.36-1.37,6.82-2.51,9.31,1.3,1.82,2.78-.25,7.42-4,9.66-6,3.61-11.93,2.64-18.67-3.16-2,1.39-3.9,3-6,4.17-1.56.89-3.47,2.06-5.06,1.85-5.74-.74-11-1-16.62,1.83-2.06,1.05-6.31-2.21-9.81-3.61-6.11,8-11.49,9-19.71,3.32-3.55,2.08-6.81,4.28-10.33,5.94-3.9,1.85-7.47.87-10.09-2.41-3.4,1.62-6.5,3.55-9.88,4.62-6.23,2-10.11-1.07-10.23-7.55-.22-12.82,16.22-29.7,29.05-30,4.3-.08,5.92,2,5,5.87-.78,3.21-2.3,6.22-3.23,9.4S67.12,74.5,66.29,78.2Zm22.56-6.37,2,.17C97.11,64,97.7,53.86,101,44.55c-4.88-1.44-8-.71-9.1,4.61s-2.78,10.27-3.72,15.49C87.77,66.93,88.59,69.43,88.85,71.83Zm35.48-3.19c4.43-1.42,10.92-10.42,10.17-14.13-.13-.63-2.3-1.53-3.09-1.21C127.52,54.84,123.44,63.78,124.33,68.64ZM60,65a12.44,12.44,0,0,0-9.41,14.87C55.94,76.2,58.13,71.26,60,65Z"/><path class="cls-1" d="M26.47,58.46c-3.72-1.43-7-2.26-9.79-3.89a5.51,5.51,0,0,1-2.3-7.76c1.62-3.29,4.3-3.86,7.55-2.69a28.26,28.26,0,0,1,3.25,1.24c3.84,2,6,.28,7.23-3.31s2.19-7,3.62-10.33a13.7,13.7,0,0,1,3.62-5.27,6,6,0,0,1,5-.88c.9.31,1.77,2.83,1.51,4.13-1,4.8-2.42,9.51-3.68,14.26l1,1.22c5.41-3.32,11.35-6,16.09-10.11,6.29-5.43,5.55-12.27-1.08-17.38C48.63,10.13,37.59,8.4,25.89,12c-6.8,2.09-13.31,5.13-20,7.44-1.75.6-3.88.05-5.84,0,1-1.72,1.58-3.92,3-5.09C17.6,2.47,34.16-2.57,52.82,1.27,66.33,4.05,75.9,14.69,74.58,26.39c-.59,5.24-3.33,10.84-6.64,15A35.2,35.2,0,0,1,46.92,54c-6.21,1.23-9.23,4.31-10.79,10.43-3.73,14.65-8.3,29.1-8.63,44.39-.09,4.37-2.16,6.38-6.46,6.42-4.59,0-5.7-2.83-5.42-6.58A181.86,181.86,0,0,1,25.24,62C25.67,60.76,26.09,59.54,26.47,58.46Z"/></svg>